HIERARCHY
ROOT pelvis
{
  OFFSET 0 100 0
  CHANNELS 6 Xposition Yposition Zposition Zrotation Xrotation Yrotation
  JOINT pelvis_right_femur
  {
    OFFSET -10.78128 -3.44521 -0.5502486
    CHANNELS 3 Zrotation Xrotation Yrotation
    JOINT right_femur_tibia
    {
      OFFSET -0.8047443 -44.0398 -0.1307829
      CHANNELS 3 Zrotation Xrotation Yrotation
      JOINT right_tibia_foot
      {
        OFFSET 3.006224 -47.83518 -5
        CHANNELS 3 Zrotation Xrotation Yrotation
        End Site
        {
          OFFSET 0 -5 15
        }
      }
    }
  }
  JOINT pelvis_left_femur
  {
    OFFSET 10.78128 -3.44521 -0.5502486
    CHANNELS 3 Zrotation Xrotation Yrotation
    JOINT left_femur_tibia
    {
      OFFSET 0.8047443 -44.0398 -0.1307829
      CHANNELS 3 Zrotation Xrotation Yrotation
      JOINT left_tibia_foot
      {
        OFFSET -4.370144 -48.10324 -4.275266
        CHANNELS 3 Zrotation Xrotation Yrotation
        End Site
        {
          OFFSET 0 -5 15
        }
      }
    }
  }
  JOINT pelvis_spine1
  {
    OFFSET 0 6.468898 -3.129235
    CHANNELS 3 Zrotation Xrotation Yrotation
    JOINT spine1
    {
      OFFSET 0 23.15396 4.99043
      CHANNELS 3 Zrotation Xrotation Yrotation
      JOINT spine2
      {
        OFFSET 0 20.79997 -5.064912
        CHANNELS 3 Zrotation Xrotation Yrotation
        JOINT neck
        {
          OFFSET 0 14.38658 9.616178
          CHANNELS 3 Zrotation Xrotation Yrotation
          End Site
          {
            OFFSET 0 20 0
          }
        }
      }
      JOINT right_manubrium
      {
        OFFSET -5.722621 16.35077 3.967754
        CHANNELS 3 Zrotation Xrotation Yrotation
        JOINT right_clavicle
        {
          OFFSET -13.16364 1.694482 -4.693211
          CHANNELS 3 Zrotation Xrotation Yrotation
          JOINT right_humerus
          {
            OFFSET -28.5034 -0.3100689 -2.792744
            CHANNELS 3 Zrotation Xrotation Yrotation
            JOINT right_radius
            {
              OFFSET -25.15693 0.02248979 -1.271978
              CHANNELS 3 Zrotation Xrotation Yrotation
              End Site
              {
                OFFSET -15 0 0
              }
            }
          }
        }
      }
      JOINT left_manubrium
      {
        OFFSET 5.722621 16.35077 3.967754
        CHANNELS 3 Zrotation Xrotation Yrotation
        JOINT left_clavicle
        {
          OFFSET 13.16364 1.694482 -4.693211
          CHANNELS 3 Zrotation Xrotation Yrotation
          JOINT left_humerus
          {
            OFFSET 29.39168 -1.063119 -2.237045
            CHANNELS 3 Zrotation Xrotation Yrotation
            JOINT left_radius
            {
              OFFSET 24.59957 -0.9528479 0.9047498
              CHANNELS 3 Zrotation Xrotation Yrotation
              End Site
              {
                OFFSET 15 -0 -0
              }
            }
          }
        }
      }
    }
  }
}
MOTION
Frames: 7
Frame Time: 0.0416666666667
897.7705 91.78871 2981.946 3.214137 -6.101832 21.979 3.113482 15.99978 5.820068 -0 16.92826 -0 2.634879 -16.07305 -2.879092 1.523179 -25.12907 -2.790368 -0 22.77249 -0 -6.401914 -7.644109 19.98412 -0.681134 1.086026 8.66363 -0.788655 9.545974 -2.785539 2.292547 21.92817 4.683167 1.84271 -16.26748 6.567713 0.5694662 -21.87608 11.03481 80.02228 21.67194 -4.610306 -0 0 25.8459 -24.12069 9.903506 13.8806 4.46076 -15.09416 -2.743216 -93.73595 23.10562 25.19187 0 0 -10.58394 -2.881599 3.964367 17.40767
901.3353 90.69362 2987.974 3.263376 -6.165881 21.48867 2.205387 17.21622 6.167624 -0 22.90216 -0 3.645713 -14.4694 -3.009744 0.6995908 -24.39786 -3.830807 -0 21.12886 -0 -6.428502 -7.748085 19.66391 -0.90226 0.6962112 8.670078 -1.053759 9.249494 -2.510878 2.598611 21.82882 4.615304 1.59819 -16.39841 7.04764 0.3086793 -21.8284 10.66209 80.21453 20.88855 -3.971618 -0 0 26.49507 -24.72774 10.17397 14.17606 4.075975 -13.98383 -2.612336 -94.1333 23.20129 26.35085 0 0 -8.69485 -3.317659 4.103971 18.17129
905.0671 90.26711 2994.15 3.518601 -5.646879 21.31538 0.9956254 17.08019 5.851246 -0 29.9679 -0 4.00877 -10.62725 -3.046585 -0.8435298 -22.78049 -4.990177 -0 21.95801 -0 -5.876506 -8.066174 18.99303 -1.744781 0.1107852 8.617686 -1.167231 9.296679 -2.664023 2.564563 21.72907 5.03838 1.735387 -17.12258 7.486253 1.061327 -21.31061 10.66479 80.27522 22.86246 -4.447194 -0 0 25.12671 -25.97765 11.73127 14.67375 3.570179 -13.84557 -2.578563 -93.61853 23.18984 26.60963 0 0 -8.365447 -2.977722 5.099729 17.94432
908.827 90.50986 3000.261 4.018698 -5.243094 21.57805 -0.01393311 15.42649 5.281447 -0 37.82636 -0 4.070409 -6.07238 -3.49412 -2.603553 -19.99906 -5.988064 -0 23.42423 -0 -5.041911 -8.81586 18.46282 -2.749365 -0.3316428 8.316611 -1.19538 9.58937 -3.063614 2.341954 21.74687 5.612901 1.996129 -17.66479 7.79505 2.206441 -20.49632 10.847 80.69417 25.54861 -5.703459 -0 0 22.74944 -27.02726 13.41392 14.98654 3.158434 -14.33937 -2.731177 -92.54666 23.19953 25.78032 0 0 -8.904307 -2.362367 6.117937 17.2256
912.4978 91.22506 3006.164 4.557192 -5.499944 22.26414 -0.415995 12.30185 4.963627 -0 45.51184 -0 4.200056 -2.621677 -4.601802 -3.990999 -16.03913 -6.742754 -0 24.2023 -0 -4.441231 -9.83411 18.13826 -3.302776 -0.3512488 7.66174 -1.192257 9.903589 -3.478689 2.194407 21.91235 5.926334 2.014801 -17.56566 8.014663 2.924569 -19.63672 10.92752 81.81593 26.72668 -7.20851 -0 0 20.67298 -27.0611 14.18886 14.80652 2.941237 -14.8219 -3.033479 -91.40137 23.3269 24.17251 0 0 -9.466781 -1.993612 6.457015 16.77922
916.0217 92.17954 3011.798 4.96207 -6.199537 23.24053 -0.3027556 8.211985 4.880927 -0 51.2091 -0 4.280479 -0.9033898 -5.992435 -4.801502 -11.51645 -7.278454 -0 24.11593 -0 -4.176648 -10.88866 17.84376 -3.340474 -0.04194172 6.774463 -1.136681 10.09354 -3.868523 2.186489 22.18127 5.939507 1.783554 -17.03402 8.193081 3.046222 -18.84025 10.84014 83.3135 26.38979 -8.660959 -0 0 19.17066 -26.25061 14.11573 14.24005 2.918803 -15.16135 -3.391823 -90.29325 23.5581 22.10642 0 0 -10.03446 -1.822111 6.342058 16.60275
919.3899 93.17154 3017.165 5.206278 -6.897864 24.35268 0.02263015 3.729043 4.794786 -0 54.04624 -0 4.103531 -0.5069914 -7.220488 -5.173691 -7.042188 -7.656533 -0 23.44588 -0 -4.095354 -11.90963 17.46881 -3.129618 0.3642856 5.834116 -1.004765 10.13913 -4.283897 2.239818 22.48639 5.829042 1.490402 -16.42246 8.33967 2.840089 -18.09476 10.66036 84.77502 25.56424 -10.04082 -0 0 17.92927 -25.16606 13.71688 13.53952 3.053446 -15.53448 -3.746114 -89.14991 23.82339 19.77279 0 0 -10.90469 -1.609633 6.241393 16.35835
